<svg width="374" height="76" fill="none" xmlns="http://www.w3.org/2000/svg"><path opacity=".1" d="M64.7 75l-.1-46.4-23 38.4h-5.8l-23-37.8V75H.4V5h10.7l27.8 46.4L66.2 5h10.7l.1 70H64.7zm54.008.7c-5.4 0-10.267-1.167-14.6-3.5-4.334-2.333-7.734-5.567-10.2-9.7-2.4-4.2-3.6-8.933-3.6-14.2 0-5.267 1.2-9.967 3.6-14.1 2.466-4.133 5.867-7.367 10.2-9.7 4.333-2.333 9.2-3.5 14.6-3.5 5.466 0 10.366 1.167 14.7 3.5 4.333 2.333 7.7 5.567 10.1 9.7 2.466 4.133 3.7 8.833 3.7 14.1 0 5.267-1.234 10-3.7 14.2-2.4 4.133-5.767 7.367-10.1 9.7-4.334 2.333-9.234 3.5-14.7 3.5zm0-10.7c4.6 0 8.4-1.533 11.4-4.6 3-3.067 4.5-7.1 4.5-12.1s-1.5-9.033-4.5-12.1-6.8-4.6-11.4-4.6c-4.6 0-8.4 1.533-11.4 4.6-2.934 3.067-4.4 7.1-4.4 12.1s1.466 9.033 4.4 12.1c3 3.067 6.8 4.6 11.4 4.6zM211.461.8V75h-12v-6.9c-2.067 2.533-4.633 4.433-7.7 5.7-3 1.267-6.333 1.9-10 1.9-5.133 0-9.767-1.133-13.9-3.4-4.067-2.267-7.267-5.467-9.6-9.6-2.333-4.2-3.5-9-3.5-14.4s1.167-10.167 3.5-14.3c2.333-4.133 5.533-7.333 9.6-9.6 4.133-2.267 8.767-3.4 13.9-3.4 3.533 0 6.767.6 9.7 1.8 2.933 1.2 5.433 3 7.5 5.4V.8h12.5zm-28.2 64.2c3 0 5.7-.667 8.1-2 2.4-1.4 4.3-3.367 5.7-5.9 1.4-2.533 2.1-5.467 2.1-8.8 0-3.333-.7-6.267-2.1-8.8-1.4-2.533-3.3-4.467-5.7-5.8-2.4-1.4-5.1-2.1-8.1-2.1s-5.7.7-8.1 2.1c-2.4 1.333-4.3 3.267-5.7 5.8-1.4 2.533-2.1 5.467-2.1 8.8 0 3.333.7 6.267 2.1 8.8 1.4 2.533 3.3 4.5 5.7 5.9 2.4 1.333 5.1 2 8.1 2zm94.752-16.4c0 .867-.066 2.1-.2 3.7h-41.9c.734 3.933 2.634 7.067 5.7 9.4 3.134 2.267 7 3.4 11.6 3.4 5.867 0 10.7-1.933 14.5-5.8l6.7 7.7c-2.4 2.867-5.433 5.033-9.1 6.5-3.666 1.467-7.8 2.2-12.4 2.2-5.866 0-11.033-1.167-15.5-3.5-4.466-2.333-7.933-5.567-10.4-9.7-2.4-4.2-3.6-8.933-3.6-14.2 0-5.2 1.167-9.867 3.5-14 2.4-4.2 5.7-7.467 9.9-9.8 4.2-2.333 8.934-3.5 14.2-3.5 5.2 0 9.834 1.167 13.9 3.5 4.134 2.267 7.334 5.5 9.6 9.7 2.334 4.133 3.5 8.933 3.5 14.4zm-27-17.6c-4 0-7.4 1.2-10.2 3.6-2.733 2.333-4.4 5.467-5 9.4h30.3c-.533-3.867-2.166-7-4.9-9.4-2.733-2.4-6.133-3.6-10.2-3.6zM290.02.8h12.5V75h-12.5V.8zM369.463 76c-5.4 0-10.633-.767-15.7-2.3-5-1.533-8.966-3.567-11.9-6.1l4.5-10.1c2.867 2.267 6.367 4.133 10.5 5.6 4.2 1.4 8.4 2.1 12.6 2.1 5.2 0 9.067-.833 11.6-2.5 2.6-1.667 3.9-3.867 3.9-6.6 0-2-.733-3.633-2.2-4.9-1.4-1.333-3.2-2.367-5.4-3.1-2.2-.733-5.2-1.567-9-2.5-5.333-1.267-9.666-2.533-13-3.8-3.266-1.267-6.1-3.233-8.5-5.9-2.333-2.733-3.5-6.4-3.5-11 0-3.867 1.034-7.367 3.1-10.5 2.134-3.2 5.3-5.733 9.5-7.6 4.267-1.867 9.467-2.8 15.6-2.8 4.267 0 8.467.533 12.6 1.6 4.134 1.067 7.7 2.6 10.7 4.6l-4.1 10.1a40.423 40.423 0 00-9.6-4.1c-3.333-.933-6.566-1.4-9.7-1.4-5.133 0-8.966.867-11.5 2.6-2.466 1.733-3.7 4.033-3.7 6.9 0 2 .7 3.633 2.1 4.9 1.467 1.267 3.3 2.267 5.5 3 2.2.733 5.2 1.567 9 2.5 5.2 1.2 9.467 2.467 12.8 3.8 3.334 1.267 6.167 3.233 8.5 5.9 2.4 2.667 3.6 6.267 3.6 10.8 0 3.867-1.066 7.367-3.2 10.5-2.066 3.133-5.233 5.633-9.5 7.5-4.266 1.867-9.466 2.8-15.6 2.8z" fill="#E51937"/></svg>