<svg width="203" height="32" fill="none" xmlns="http://www.w3.org/2000/svg"><path d="M52.113 9.992l-3.072 6.016-2.976-6.016h-2.768l4.416 8.224-.096.128c-.432.672-.928.96-1.568.96-.336 0-.704-.08-1.12-.208l-.624 1.968a4.789 4.789 0 001.824.384c1.504 0 2.832-.864 3.76-2.592l4.768-8.864h-2.544zm10.222 5.36c.992-.432 1.616-1.296 1.616-2.384 0-2.032-2.24-3.216-4.832-3.216-1.28 0-2.624.288-3.84.912l.784 2.016a6.28 6.28 0 013.008-.8c1.264 0 2.256.48 2.256 1.392 0 .736-.608 1.2-1.664 1.2h-2.544v1.952h2.736c1.168 0 1.936.416 1.936 1.264 0 1.04-1.2 1.584-2.672 1.584-1.088 0-2.336-.288-3.36-.912l-.8 1.856c1.392.8 2.976 1.168 4.464 1.168 2.688 0 4.992-1.216 4.992-3.328 0-1.264-.784-2.256-2.08-2.704zm11.812-5.36v4.416h-5.088V9.992h-2.592v11.2h2.592V16.6h5.088v4.592h2.592v-11.2h-2.592zm13.974 11.2h2.72l-5.008-11.2h-2.56l-4.992 11.2h2.656l.992-2.4h5.2l.992 2.4zm-5.36-4.368l1.776-4.288 1.776 4.288h-3.552zm17.563-6.832h-9.712v2.112h3.568v9.088h2.56v-9.088h3.584V9.992zm7.051 3.68h-2.848v-3.68h-2.576v11.2h5.056c2.88 0 4.608-1.328 4.608-3.904 0-2.416-1.536-3.616-4.24-3.616zm-.512 5.6h-2.336v-3.68h2.336c1.344 0 2.144.512 2.144 1.744 0 1.264-.816 1.936-2.144 1.936zm11.151 1.92h5.312c2.88 0 4.528-1.296 4.528-3.536 0-2.144-1.456-3.296-4.16-3.296h-3.104v-2.304h6.464V9.992h-9.04v11.2zm2.576-1.92v-3.008h2.592c1.36 0 2.048.48 2.048 1.472 0 1.008-.72 1.536-2.048 1.536h-2.592zm14.58 2.112c3.52 0 6.128-2.448 6.128-5.792S138.69 9.8 135.17 9.8c-3.536 0-6.128 2.464-6.128 5.792s2.592 5.792 6.128 5.792zm0-2.208c-2 0-3.504-1.456-3.504-3.584s1.504-3.584 3.504-3.584 3.504 1.456 3.504 3.584-1.504 3.584-3.504 3.584zm9.189-9.184l-.16 4.544c-.112 2.864-.448 4.528-1.76 4.528-.16 0-.304-.016-.464-.064l-.16 2.192c.48.112.896.176 1.28.176 2.624 0 3.248-2.528 3.392-6.928l.08-2.336h3.84v9.088h2.56v-11.2h-8.608zm16.829 3.68h-2.848v-3.68h-2.576v11.2h5.056c2.88 0 4.608-1.328 4.608-3.904 0-2.416-1.536-3.616-4.24-3.616zm-.512 5.6h-2.336v-3.68h2.336c1.344 0 2.144.512 2.144 1.744 0 1.264-.816 1.936-2.144 1.936zm18.827-9.28v9.088h-3.52V9.992h-2.576v9.088h-3.536V9.992h-2.576v11.2h14.784v-11.2h-2.576zm7.931 9.12V16.52h5.2v-2.016h-5.2v-2.432h5.888v-2.08h-8.464v11.2h8.672v-2.08h-6.096z" fill="#fff"/><circle cx="16.092" cy="16.037" r="14.092" stroke="#fff" stroke-width="3"/><path d="M16.079 11.861c1.26 0 2.088-.792 2.088-1.871 0-1.026-.828-1.764-2.088-1.764-1.26 0-2.088.792-2.088 1.817 0 1.027.828 1.819 2.088 1.819zm-1.71 10.837h3.42V12.94h-3.42v9.757z" fill="#fff"/></svg>