<svg width="165" height="27" fill="none" xmlns="http://www.w3.org/2000/svg"><path d="M37.404 6.9l-2.496 4.888L32.49 6.9h-2.249l3.589 6.682-.078.104c-.352.546-.755.78-1.275.78-.272 0-.571-.065-.91-.169l-.506 1.599a3.89 3.89 0 001.481.312c1.222 0 2.301-.702 3.055-2.106L39.471 6.9h-2.066zm8.306 4.355c.806-.351 1.313-1.053 1.313-1.937 0-1.651-1.82-2.613-3.926-2.613-1.04 0-2.132.234-3.12.741l.637 1.638a5.103 5.103 0 012.444-.65c1.027 0 1.833.39 1.833 1.131 0 .598-.494.975-1.352.975h-2.067v1.586h2.223c.949 0 1.573.338 1.573 1.027 0 .845-.975 1.287-2.171 1.287-.884 0-1.898-.234-2.73-.741l-.65 1.508a7.343 7.343 0 003.627.949c2.184 0 4.056-.988 4.056-2.704 0-1.027-.637-1.833-1.69-2.197zM55.307 6.9v3.588h-4.134V6.9h-2.106V16h2.106v-3.731h4.134V16h2.106V6.9h-2.106zM66.661 16h2.21l-4.069-9.1h-2.08L58.666 16h2.158l.806-1.95h4.225l.806 1.95zm-4.355-3.549l1.443-3.484 1.443 3.484h-2.886zM76.576 6.9h-7.891v1.716h2.899V16h2.08V8.616h2.912V6.9zm5.73 2.99H79.99V6.9h-2.093V16h4.108c2.34 0 3.744-1.079 3.744-3.172 0-1.963-1.248-2.938-3.445-2.938zm-.417 4.55h-1.898v-2.99h1.898c1.092 0 1.742.416 1.742 1.417 0 1.027-.663 1.573-1.742 1.573zM90.95 16h4.316c2.34 0 3.679-1.053 3.679-2.873 0-1.742-1.183-2.678-3.38-2.678h-2.522V8.577h5.252V6.9h-7.345V16zm2.093-1.56v-2.444h2.106c1.105 0 1.664.39 1.664 1.196 0 .819-.585 1.248-1.664 1.248h-2.106zm11.847 1.716c2.86 0 4.979-1.989 4.979-4.706 0-2.717-2.119-4.706-4.979-4.706-2.873 0-4.98 2.002-4.98 4.706 0 2.704 2.107 4.706 4.98 4.706zm0-1.794c-1.625 0-2.847-1.183-2.847-2.912 0-1.729 1.222-2.912 2.847-2.912s2.847 1.183 2.847 2.912c0 1.729-1.222 2.912-2.847 2.912zm7.465-7.462l-.13 3.692c-.091 2.327-.364 3.679-1.43 3.679-.13 0-.247-.013-.377-.052l-.13 1.781c.39.091.728.143 1.04.143 2.132 0 2.639-2.054 2.756-5.629l.065-1.898h3.12V16h2.08V6.9h-6.994zm13.674 2.99h-2.314V6.9h-2.093V16h4.108c2.34 0 3.744-1.079 3.744-3.172 0-1.963-1.248-2.938-3.445-2.938zm-.416 4.55h-1.898v-2.99h1.898c1.092 0 1.742.416 1.742 1.417 0 1.027-.663 1.573-1.742 1.573zm15.297-7.54v7.384h-2.86V6.9h-2.093v7.384h-2.873V6.9h-2.093V16h12.012V6.9h-2.093zm6.443 7.41v-2.106h4.225v-1.638h-4.225V8.59h4.784V6.9h-6.877V16h7.046v-1.69h-4.953z" fill="#fff"/><circle cx="11" cy="11" r="10" stroke="#fff" stroke-width="2"/><path d="M10.995 8.031c.754 0 1.26-.494 1.26-1.17 0-.624-.506-1.092-1.26-1.092S9.734 6.263 9.734 6.9s.507 1.131 1.26 1.131zM9.98 16h2.028V9.006H9.98V16z" fill="#fff"/></svg>