<svg width="45" height="73" fill="none" xmlns="http://www.w3.org/2000/svg"><path fill-rule="evenodd" clip-rule="evenodd" d="M22.937 23.18c.994 1.334 2.768 2.312 5.709 1.918 5.163-.691 9.159.858 11.556 3.827 2.338 2.895 2.875 6.803 1.868 10.309-1.017 3.542-3.633 6.79-7.744 8.416-4.105 1.626-9.446 1.544-15.825-1.019-5.541-2.226-8.728-1.865-10.443-.862-1.673.98-2.653 2.997-2.756 5.851-.102 2.828.7 6.049 2.08 8.652 1.43 2.695 3.18 4.206 4.64 4.5l-.846 4.215c-3.353-.674-5.943-3.59-7.592-6.701-1.697-3.203-2.71-7.166-2.579-10.821.131-3.628 1.435-7.39 4.882-9.407 3.405-1.992 8.176-1.843 14.217.584 5.657 2.272 9.823 2.126 12.64 1.011 2.81-1.113 4.526-3.281 5.194-5.606.678-2.361.252-4.77-1.08-6.42-1.274-1.578-3.658-2.8-7.642-2.267-4.28.573-7.682-.866-9.727-3.612-1.972-2.648-2.453-6.2-1.678-9.524.782-3.357 2.872-6.647 6.287-8.881 3.432-2.245 8.063-3.337 13.79-2.552l-.583 4.26c-4.864-.667-8.418.297-10.853 1.89-2.452 1.604-3.913 3.935-4.454 6.259-.55 2.358-.128 4.547.939 5.98z" fill="#000"/><path fill-rule="evenodd" clip-rule="evenodd" d="M37.558 7.205c-.66-.09-1.3-.154-1.92-.19l.034-.573c.636.038 1.29.102 1.964.195l-.078.568zm-5.77-.076a16.19 16.19 0 00-3.714.913l-.203-.536a16.764 16.764 0 013.844-.946l.073.569zm-7.054 2.743a12.396 12.396 0 00-2.652 2.718l-.468-.332a12.97 12.97 0 012.775-2.844l.345.458zm-4.338 6.12a10.943 10.943 0 00-.49 3.75l-.572.029a11.517 11.517 0 01.514-3.95l.548.17zm.464 7.376c.586 1.106 1.435 2.035 2.541 2.682l-.29.495c-1.205-.705-2.126-1.716-2.758-2.909l.507-.268zm8.033 3.577a15.958 15.958 0 012.241-.147l-.004.573c-.68-.005-1.4.04-2.161.142-.706.095-1.375.126-2.008.1l.023-.572c.598.024 1.234-.006 1.909-.096zm6.623.713c1.49.646 2.659 1.617 3.506 2.79l-.465.335c-.787-1.089-1.874-1.995-3.269-2.599l.228-.526zm5.106 6.975a10.42 10.42 0 01-.455 4.453l-.545-.178a9.848 9.848 0 00.43-4.207l.57-.068zM13.453 43.27c-1.506-.215-2.811-.193-3.933.018l-.106-.563c1.194-.225 2.563-.244 4.12-.023l-.081.568zm24.478-.308a11.2 11.2 0 01-3.59 2.654l-.244-.519a10.628 10.628 0 003.407-2.518l.427.383zm-18.735 1.941a32.674 32.674 0 00-1.886-.693l.18-.544c.618.205 1.257.44 1.92.705.7.282 1.381.53 2.046.745l-.177.545a32.693 32.693 0 01-2.084-.758zm-13.13.025c-.95.852-1.623 1.966-2.051 3.25l-.544-.182c.454-1.36 1.176-2.565 2.213-3.495l.382.427zm23.976 1.858c-1.36.145-2.845.12-4.454-.107l.08-.568c1.566.221 3.004.244 4.313.105l.06.57zM3.43 52.056A18.36 18.36 0 003.868 56l-.56.122a18.933 18.933 0 01-.451-4.066l.573.001zm1.654 7.727c.546 1.264 1.209 2.435 1.958 3.44l-.46.343c-.779-1.045-1.463-2.256-2.024-3.556l.526-.227zm4.794 6.113a5.71 5.71 0 001.778.702l-.113.562a6.28 6.28 0 01-1.956-.77l.291-.494z" fill="#fff"/><path d="M17.475 67.595a5.016 5.016 0 11-10.032 0 5.016 5.016 0 0110.032 0z" fill="#C4C4C4"/><path d="M14.609 67.595a2.15 2.15 0 11-4.3 0 2.15 2.15 0 014.3 0z" fill="#fff"/><path d="M44.705 5.97a5.016 5.016 0 11-10.032 0 5.016 5.016 0 0110.032 0z" fill="#C4C4C4"/><path d="M41.838 5.97a2.15 2.15 0 11-4.3 0 2.15 2.15 0 014.3 0z" fill="#fff"/></svg>