<svg width="26" height="41" fill="none" xmlns="http://www.w3.org/2000/svg"><path fill-rule="evenodd" clip-rule="evenodd" d="M12.694 12.717c.574.763 1.6 1.323 3.302 1.097 2.987-.395 5.298.491 6.685 2.19 1.352 1.656 1.663 3.893 1.08 5.898-.588 2.027-2.101 3.885-4.48 4.816-2.373.93-5.463.883-9.154-.583-3.205-1.274-5.049-1.068-6.04-.493-.969.56-1.535 1.714-1.595 3.347-.059 1.618.405 3.461 1.204 4.95.826 1.543 1.839 2.407 2.684 2.575l-.49 2.412c-1.94-.386-3.438-2.054-4.392-3.834C.516 33.26-.07 30.992.007 28.9c.075-2.076.83-4.229 2.823-5.383 1.97-1.14 4.73-1.055 8.225.334 3.272 1.3 5.682 1.217 7.311.579 1.626-.637 2.619-1.878 3.005-3.208.393-1.35.146-2.73-.625-3.674-.737-.902-2.115-1.602-4.42-1.296-2.476.328-4.444-.496-5.627-2.067-1.141-1.515-1.42-3.547-.971-5.45.453-1.92 1.662-3.803 3.637-5.08 1.986-1.285 4.665-1.91 7.978-1.461l-.338 2.437c-2.814-.381-4.87.17-6.278 1.082-1.419.918-2.264 2.251-2.577 3.581-.318 1.35-.074 2.602.543 3.422z" fill="#000"/><path fill-rule="evenodd" clip-rule="evenodd" d="M21.152 3.576a14.748 14.748 0 00-1.111-.109l.02-.327c.367.022.746.058 1.136.111l-.045.325zm-3.338-.043c-.786.1-1.502.279-2.149.522l-.117-.307a9.785 9.785 0 012.224-.54l.042.325zm-4.08 1.57a7.13 7.13 0 00-1.535 1.554l-.27-.19a7.46 7.46 0 011.605-1.627l.2.262zm-2.51 3.5a6.196 6.196 0 00-.283 2.147l-.332.016a6.524 6.524 0 01.298-2.26l.317.097zm.268 4.221c.339.633.83 1.165 1.47 1.535l-.167.283a4.176 4.176 0 01-1.596-1.664l.293-.154zm4.647 2.047c.454-.06.887-.087 1.297-.084l-.003.328a8.997 8.997 0 00-1.25.081 6.763 6.763 0 01-1.162.057l.014-.327a6.43 6.43 0 001.104-.055zm3.832.408c.861.37 1.537.925 2.027 1.596l-.268.192a4.508 4.508 0 00-1.891-1.487l.132-.3zm2.953 3.991a5.9 5.9 0 01-.263 2.547l-.315-.101a5.575 5.575 0 00.249-2.407l.329-.039zM7.207 24.21c-.871-.122-1.626-.11-2.275.011l-.061-.322c.69-.128 1.483-.14 2.383-.013l-.047.325zm14.16-.175a6.475 6.475 0 01-2.076 1.518l-.142-.296a6.144 6.144 0 001.972-1.441l.246.219zm-10.838 1.11c-.377-.15-.74-.281-1.09-.396l.104-.311c.357.117.727.251 1.11.403.405.161.8.303 1.184.426l-.102.312a19.07 19.07 0 01-1.206-.433zm-7.595.015c-.55.487-.939 1.125-1.187 1.859l-.314-.104c.263-.778.68-1.467 1.28-2l.221.245zm13.87 1.063c-.787.083-1.646.069-2.577-.061l.046-.325c.906.126 1.738.14 2.495.06l.035.326zM1.408 29.239c-.002.736.087 1.5.253 2.256l-.324.07a10.719 10.719 0 01-.26-2.327l.331.001zm.957 4.42c.316.724.7 1.394 1.133 1.97l-.266.196a10.15 10.15 0 01-1.171-2.035l.304-.13zm2.773 3.499c.334.195.678.331 1.029.401l-.066.322a3.658 3.658 0 01-1.131-.44l.168-.283z" fill="#fff"/><path d="M9.534 38.13c0 1.585-1.3 2.87-2.902 2.87s-2.901-1.285-2.901-2.87c0-1.585 1.299-2.87 2.901-2.87 1.603 0 2.902 1.285 2.902 2.87z" fill="#C4C4C4"/><path d="M7.876 38.13c0 .68-.557 1.23-1.244 1.23-.687 0-1.243-.55-1.243-1.23 0-.68.556-1.23 1.243-1.23s1.244.55 1.244 1.23z" fill="#fff"/><path d="M25.286 2.87c0 1.585-1.3 2.87-2.902 2.87s-2.902-1.285-2.902-2.87c0-1.585 1.3-2.87 2.902-2.87 1.603 0 2.902 1.285 2.902 2.87z" fill="#C4C4C4"/><path d="M23.628 2.87c0 .68-.557 1.23-1.244 1.23-.687 0-1.244-.55-1.244-1.23 0-.68.557-1.23 1.244-1.23.687 0 1.244.55 1.244 1.23z" fill="#fff"/></svg>