<svg width="67" height="51" fill="none" xmlns="http://www.w3.org/2000/svg"><path d="M48.413 32.366c0 8.288-6.753 15.006-15.084 15.006-8.33 0-15.084-6.718-15.084-15.006 0-8.287 6.753-15.006 15.084-15.006s15.084 6.719 15.084 15.006z" fill="#C4C4C4"/><path d="M29.997 34.316c-.936-2.013-.068-4.397 1.927-5.315 1.992-.915 4.367-.023 5.303 1.99l19.721 10.995-21.866-5.58c-1.946.75-4.185-.151-5.085-2.09z" fill="#030104"/><path d="M10.021 10.334C16.247 4.114 24.525.687 33.33.687c8.805 0 17.082 3.426 23.308 9.647 6.226 6.221 9.654 14.492 9.654 23.29 0 5.68-1.432 11.14-4.121 15.971h-6.16l-4.507-2.6 1.99-3.444 5.794 3.343a28.945 28.945 0 003.203-13.27c0-.845-.038-1.682-.109-2.509l-6.908 1.217-.691-3.916 6.99-1.232a29.122 29.122 0 00-7.955-14.274l-4.736 5.64-3.049-2.556 4.772-5.683A29.013 29.013 0 0035.32 4.555v7.543h-3.98V4.554a29.018 29.018 0 00-15.485 5.756l4.772 5.683-3.049 2.556-4.736-5.64a29.125 29.125 0 00-7.954 14.274l6.99 1.232-.692 3.916-6.908-1.217c-.07.827-.109 1.664-.109 2.509a28.94 28.94 0 003.203 13.27l5.794-3.343 1.99 3.444-4.506 2.6H4.49C1.798 44.764.366 39.305.366 33.624c0-8.798 3.429-17.07 9.654-23.29z" fill="#030104"/></svg>