<svg width="39" height="29" fill="none" xmlns="http://www.w3.org/2000/svg"><path d="M27.794 18.126c0 4.742-3.907 8.586-8.726 8.586-4.82 0-8.726-3.844-8.726-8.586 0-4.742 3.907-8.586 8.726-8.586 4.82 0 8.726 3.844 8.726 8.586z" fill="#C4C4C4"/><path d="M17.14 19.241a2.273 2.273 0 011.115-3.04 2.335 2.335 0 013.067 1.138l11.409 6.291-12.65-3.193a2.344 2.344 0 01-2.941-1.196z" fill="#030104"/><path d="M5.585 5.52C9.186 1.96 13.975 0 19.068 0S28.95 1.96 32.55 5.52c3.602 3.56 5.585 8.292 5.585 13.326 0 3.25-.829 6.374-2.384 9.138h-3.564l-2.607-1.488 1.151-1.97 3.352 1.912a16.417 16.417 0 001.79-9.028l-3.997.697-.4-2.241 4.044-.705a16.615 16.615 0 00-4.601-8.167l-2.74 3.227-1.764-1.463 2.76-3.251a16.895 16.895 0 00-8.957-3.294v4.316h-2.302V2.213a16.898 16.898 0 00-8.958 3.294l2.76 3.25-1.763 1.464-2.74-3.227a16.617 16.617 0 00-4.601 8.167l4.043.705-.4 2.24-3.996-.696a16.413 16.413 0 001.79 9.028l3.352-1.912 1.15 1.97-2.606 1.488H2.384A18.566 18.566 0 010 18.845C0 13.813 1.984 9.08 5.585 5.52z" fill="#030104"/></svg>