<svg width="164" height="32" fill="none" xmlns="http://www.w3.org/2000/svg"><path d="M57.723 11.915H48.01v2.112h3.568v9.088h2.56v-9.088h3.584v-2.112zm4.203 9.12v-2.592h5.2v-2.016h-5.2v-2.432h5.888v-2.08H59.35v11.2h8.672v-2.08h-6.096zm13.454 2.272c1.952 0 3.568-.704 4.624-2L78.34 19.77c-.752.88-1.696 1.328-2.816 1.328-2.096 0-3.584-1.472-3.584-3.584s1.488-3.584 3.584-3.584c1.12 0 2.064.448 2.816 1.312l1.664-1.536c-1.056-1.28-2.672-1.984-4.608-1.984-3.488 0-6.08 2.416-6.08 5.792s2.592 5.792 6.064 5.792zm14.764-11.392h-9.712v2.112H84v9.088h2.56v-9.088h3.584v-2.112zm16.143 9.088v-9.088h-8.608l-.128 3.504c-.112 3.136-.48 5.536-1.936 5.584h-.448l-.016 4.432h2.4v-2.32h7.904v2.32h2.4v-4.432h-1.568zm-6.448-5.344l.048-1.632h3.84v6.976h-5.008c.768-.912 1.024-2.96 1.12-5.344zm14.609-3.744H109.6v11.2h2.592v-3.088h2.256c2.992 0 4.864-1.552 4.864-4.048 0-2.512-1.872-4.064-4.864-4.064zm-.144 6h-2.112v-3.888h2.112c1.584 0 2.384.72 2.384 1.952 0 1.216-.8 1.936-2.384 1.936zm14.731 5.2h2.72l-5.008-11.2h-2.56l-4.992 11.2h2.656l.992-2.4h5.2l.992 2.4zm-5.36-4.368l1.776-4.288 1.776 4.288h-3.552zm14.734-7.552c2.096 0 3.088-.88 3.104-2.448h-1.776c-.016.768-.48 1.168-1.328 1.168-.88 0-1.312-.4-1.328-1.168h-1.776c.016 1.568.976 2.448 3.104 2.448zm-5.168 11.92h2.448l5.344-7.28v7.28h2.56v-11.2h-2.432l-5.344 7.296v-7.296h-2.576v11.2zm20.9-5.84c.992-.48 1.584-1.328 1.584-2.464 0-1.856-1.536-2.896-4.128-2.896h-5.216v11.2h5.52c2.832 0 4.352-1.2 4.352-3.152 0-1.36-.752-2.288-2.112-2.688zm-5.184-3.44h2.416c1.12 0 1.712.48 1.712 1.36 0 .896-.592 1.36-1.712 1.36h-2.416v-2.72zm2.848 7.36h-2.848v-2.832h2.848c1.2 0 1.824.448 1.824 1.392 0 .976-.624 1.44-1.824 1.44zM16.076.974C7.736.974.893 7.818.893 16.157c0 8.339 6.843 15.183 15.183 15.183 8.339 0 15.182-6.844 15.182-15.183 0-8.34-6.843-15.183-15.182-15.183zm0 26.748c-6.377 0-11.565-5.189-11.565-11.565 0-6.377 5.188-11.565 11.565-11.565 6.376 0 11.564 5.188 11.564 11.565s-5.188 11.565-11.564 11.565z" fill="#E51937"/><path d="M17.855 13.488a1.78 1.78 0 11-3.559 0 1.78 1.78 0 013.559 0z" fill="#E51937"/><path d="M16.075 17.047c-1.576 0-2.9-1.037-3.366-2.459-2.355.257-4.55.75-6.414 1.467 0 .034-.005.067-.005.102 0 1.028.161 2.019.456 2.95 1.456-.76 2.882-1.17 3.992-1.17.928 0 1.642.262 2.18.803 1.243 1.248 1.385 3.782 1.388 7.034a9.764 9.764 0 001.77.169c.604 0 1.194-.063 1.77-.17.002-3.248.143-5.783 1.387-7.033.538-.54 1.25-.804 2.18-.804 1.096 0 2.524.396 3.994 1.166.294-.93.454-1.92.454-2.945 0-.034-.005-.067-.005-.1-2.02-.779-4.253-1.232-6.414-1.47-.466 1.423-1.79 2.46-3.367 2.46z" fill="#E51937"/></svg>