<svg width="126" height="30" fill="none" xmlns="http://www.w3.org/2000/svg"><g filter="url(#filter0_d)" fill="#000"><path d="M41.248 6.9h-7.891v1.716h2.899V16h2.08V8.616h2.912V6.9zm3.415 7.41v-2.106h4.225v-1.638h-4.225V8.59h4.784V6.9H42.57V16h7.046v-1.69h-4.953zm10.932 1.846c1.586 0 2.899-.572 3.757-1.625L58 13.283c-.611.715-1.378 1.079-2.288 1.079-1.703 0-2.912-1.196-2.912-2.912s1.209-2.912 2.912-2.912c.91 0 1.677.364 2.288 1.066l1.352-1.248c-.858-1.04-2.171-1.612-3.744-1.612-2.834 0-4.94 1.963-4.94 4.706 0 2.743 2.106 4.706 4.927 4.706zM67.59 6.9H59.7v1.716h2.898V16h2.08V8.616h2.912V6.9zm13.116 7.384V6.9h-6.994l-.104 2.847c-.09 2.548-.39 4.498-1.573 4.537h-.364l-.013 3.601h1.95V16h6.422v1.885h1.95v-3.601h-1.274zm-5.239-4.342l.04-1.326h3.12v5.668h-4.07c.624-.741.832-2.405.91-4.342zM87.337 6.9h-3.939V16h2.106v-2.509h1.833c2.431 0 3.952-1.261 3.952-3.289 0-2.041-1.52-3.302-3.952-3.302zm-.117 4.875h-1.716V8.616h1.716c1.287 0 1.937.585 1.937 1.586 0 .988-.65 1.573-1.937 1.573zM99.19 16h2.209L97.33 6.9h-2.08L91.194 16h2.158l.806-1.95h4.225L99.19 16zm-4.356-3.549l1.443-3.484 1.443 3.484h-2.886zm11.971-6.136c1.703 0 2.509-.715 2.522-1.989h-1.443c-.013.624-.39.949-1.079.949-.715 0-1.066-.325-1.079-.949h-1.443c.013 1.274.793 1.989 2.522 1.989zM102.606 16h1.989l4.342-5.915V16h2.08V6.9h-1.976l-4.342 5.928V6.9h-2.093V16zm16.982-4.745c.806-.39 1.287-1.079 1.287-2.002 0-1.508-1.248-2.353-3.354-2.353h-4.238V16h4.485c2.301 0 3.536-.975 3.536-2.561 0-1.105-.611-1.859-1.716-2.184zm-4.212-2.795h1.963c.91 0 1.391.39 1.391 1.105 0 .728-.481 1.105-1.391 1.105h-1.963V8.46zm2.314 5.98h-2.314v-2.301h2.314c.975 0 1.482.364 1.482 1.131 0 .793-.507 1.17-1.482 1.17zM15 0C8.958 0 4 4.958 4 11s4.958 11 11 11 11-4.958 11-11S21.042 0 15 0zm0 19.379c-4.62 0-8.379-3.759-8.379-8.379 0-4.62 3.759-8.379 8.379-8.379 4.62 0 8.379 3.759 8.379 8.379 0 4.62-3.759 8.379-8.379 8.379z"/><path d="M16.29 9.066a1.289 1.289 0 11-2.579 0 1.289 1.289 0 012.578 0z"/><path d="M15 11.645a2.573 2.573 0 01-2.44-1.781c-1.705.185-3.296.543-4.646 1.062 0 .025-.004.049-.004.074 0 .745.117 1.463.331 2.138 1.055-.55 2.088-.849 2.892-.849.673 0 1.19.19 1.58.582.9.905 1.003 2.74 1.005 5.097.416.076.844.122 1.282.122.438 0 .866-.046 1.282-.122.002-2.354.105-4.191 1.006-5.097.39-.391.906-.582 1.58-.582.793 0 1.828.287 2.893.845.213-.674.329-1.39.329-2.134 0-.024-.004-.048-.004-.072-1.463-.565-3.081-.893-4.647-1.065A2.573 2.573 0 0115 11.645z"/></g><defs><filter id="filter0_d" x="0" y="0" width="125.304" height="30" filterUnits="userSpaceOnUse" color-interpolation-filters="sRGB"><feFlood flood-opacity="0" result="BackgroundImageFix"/><feColorMatrix in="SourceAlpha" values="0 0 0 0 0 0 0 0 0 0 0 0 0 0 0 0 0 0 127 0"/><feOffset dy="4"/><feGaussianBlur stdDeviation="2"/><feColorMatrix values="0 0 0 0 0 0 0 0 0 0 0 0 0 0 0 0 0 0 0.25 0"/><feBlend in2="BackgroundImageFix" result="effect1_dropShadow"/><feBlend in="SourceGraphic" in2="effect1_dropShadow" result="shape"/></filter></defs></svg>